<svg width="410" height="445" viewBox="0 0 410 445" fill="none" xmlns="http://www.w3.org/2000/svg">
<g filter="url(#filter0_d_304_55)">
<path d="M171.337 85.9551C171.873 92.547 174.597 93.5814 175.893 93.2746L179.136 72.9479L201.7 67.679L223.781 97.2004C232.714 94.8162 231.483 86.4057 229.752 82.4984C231.531 82.7987 235.529 81.7125 237.291 74.9648C239.053 68.2172 233.846 63.0401 231.022 61.2951C232.689 46.2687 222.664 44.7358 217.444 45.8477C216.658 37.2621 212.22 35.2898 205.491 35.241C200.108 35.2019 195.38 40.945 193.689 43.8215C193.562 42.1966 191.21 39.1902 182.811 40.1641C174.411 41.1379 173.551 48.4037 174.171 51.9149C169.965 50.634 162.424 53.1663 159.902 59.3996C156.795 68.1381 163.599 72.907 167.389 74.1992C163.052 80.2729 168.214 84.5672 171.337 85.9551Z" fill="#3F352F"/>
<path d="M175.718 90.2553C170.357 85.2841 169.924 77.5806 170.377 74.3503C177.547 74.7127 180.517 67.4823 181.106 63.8218C186.978 68.3138 193.413 63.408 195.897 60.3936C199.403 67.8348 205.113 65.7636 207.529 63.7978C207.786 69.5598 210.441 70.3868 211.737 70.08L212.29 77.974C214.156 78.1169 217.748 77.9878 217.191 76.3281C215.914 72.5247 217.942 66.0722 223.715 69.5201C231.398 77.4055 226.242 83.2921 222.704 85.2498C222.289 94.0077 225.591 106.34 227.294 111.411C225.951 121.404 211.364 122.275 204.238 121.462L201.335 112.818C196.173 114.936 192.46 113.874 187.238 108.318C176.3 96.9854 176.879 93.7129 175.718 90.2553Z" fill="#F8BB84"/>
<path d="M196.654 70.1431C189.924 68.0937 185.595 73.857 184.271 76.9948C184.387 77.3405 184.851 77.7233 185.779 76.4883C191.787 71.3926 194.479 72.4124 196.336 72.9432C197.467 72.5634 199.114 71.4716 196.654 70.1431Z" fill="black"/>
<path d="M224.694 363.528C233.741 356.488 237.857 346.923 238.784 343.021L248.21 339.856L247.429 346.274L241.43 367.141L221.914 380.236C224.033 386.963 219.358 400.28 215.973 398.776C204.63 393.735 213.384 372.327 224.694 363.528Z" fill="#272525"/>
<path d="M171.279 83.2817C172.438 80.7377 175.783 80.8712 177.311 81.2559C178.124 83.6763 175.89 83.2719 174.643 83.306C173.396 83.3401 170.583 86.2084 171.279 83.2817Z" fill="black"/>
<path d="M199.16 327.471C199.643 311.919 212.043 312.115 218.183 314.157L201.713 330.077L199.022 353.296L199.84 375.722L215.299 375.532C213.531 381.512 203.755 386.657 195.112 375.386C186.901 364.677 191.383 351.372 194.321 346.795C195.123 344.602 197.213 337.667 199.16 327.471Z" fill="#272525"/>
<path d="M200.612 334.294C200.978 315.395 210.796 313.816 215.66 315.389L211.253 322.256L206.472 339.251C212.902 341.324 225.524 346.012 224.573 348.178C223.385 350.886 221.037 355.137 220.922 359.793C220.849 362.737 221.041 370.141 213.589 379.184C202.135 388.802 196.329 371.514 195.284 368.402C193.426 362.87 196.758 349.054 200.612 334.294Z" fill="#837C7C"/>
<path d="M178.356 84.3675C176.894 83.0118 174.073 84.5233 172.845 85.4486C173.867 88.4912 175.515 90.0669 176.211 90.4744C177.266 93.1983 178.156 97.5162 178.301 96.6981C178.591 95.0618 187.523 91.6774 187.291 90.9859C185.957 89.5103 180.04 91.8818 179.054 91.4435C178.068 91.0052 178.704 85.4049 178.356 84.3675Z" fill="#F8A962"/>
<path d="M188.187 79.9119C189.028 77.8341 192.014 74.3175 197.236 76.8732" stroke="black" stroke-width="2" stroke-linecap="round"/>
<path d="M174.644 88.3074C174.673 87.1435 174.719 85.2813 177.689 86.1306" stroke="black" stroke-width="2" stroke-linecap="round"/>
<path d="M201.01 90.6111L182.363 98.7971C183.253 101.448 186.24 106.344 191.066 104.724C200.3 102.238 201.543 94.2798 201.01 90.6111Z" fill="white"/>
<path d="M213.859 90.1437C214.675 101.566 205.927 110.25 201.335 112.818L203.542 119.387C226.8 106.19 214.265 88.8532 213.859 90.1437Z" fill="#F8A962"/>
<path d="M292.482 55.6615C288.723 58.4626 283.493 64.7079 281.347 67.4805L291.33 87.2133C299.159 79.7105 315.473 63.4078 318.093 58.2185C321.369 51.7319 310.574 29.5788 307.643 27.1C304.713 24.6212 304.161 21.7285 302.768 17.5794C301.375 13.4302 294.558 11.8718 288.408 8.55046C283.488 5.89337 282.337 8.79386 282.376 10.5762C278.988 10.4827 278.645 13.6247 278.897 15.2074C274.604 15.4177 274.189 19.0967 274.518 20.91C266.7 26.6134 276.638 30.9711 282.585 32.437C281.512 35.4904 286.328 37.3362 287.488 35.7924C288.647 34.2487 295.986 34.8624 294.043 37.8232C292.653 45.6773 292.423 52.988 292.482 55.6615Z" fill="#F8BB84"/>
<path d="M241.114 379.944C254.246 373.072 261.221 366.523 263.067 364.108L252.589 339.155L246.963 339.89C243.601 349.868 235.047 358.127 229.566 363.046C224.085 367.964 218.201 379.175 215.07 384.843C211.939 390.512 214.175 400.918 218.699 399.399C234.272 389.553 234.967 386.626 241.114 379.944Z" fill="#837C7C"/>
<path d="M292.574 77.1765C289.44 70.8417 286.103 64.9855 284.826 62.8492L280.216 67.8603L290.576 87.4664L303.102 74.7953C300.463 75.6815 294.17 78.1797 292.574 77.1765Z" fill="#F8A962"/>
<path d="M215.362 287.017C203.595 274.963 202.873 259.405 203.983 253.133L254.709 238.022C260.368 251.127 271.484 277.482 270.672 278.063C269.657 278.788 276.044 302.806 278.947 311.45C282.547 322.169 263.901 340.358 257.433 339.837C252.259 339.42 227.686 346.62 216.046 350.272C201.138 348.353 198.698 336.091 202.901 327.369C206.264 320.391 219.555 312.414 225.781 309.297C227.211 306.893 227.13 299.072 215.362 287.017Z" fill="black"/>
<path d="M297.201 238.374L254.332 238.149C253.909 248.551 256.963 273.971 272.561 292.434C288.159 310.896 307.8 320.743 315.67 323.358C305.67 324.561 284.241 330.962 274.777 334.012L263.697 333.501L248.993 338.439C244.24 353.27 255.97 363.798 262.168 365.179L279.134 359.482C283.281 358.089 319.132 359.901 352.747 356.308C386.363 352.714 371.676 316.477 356.068 302.481C343.582 291.284 311.872 254.993 297.201 238.374Z" fill="black"/>
<path d="M201.656 120.02C222.517 123.172 226.531 112.052 225.93 106.098C226.2 106.904 228.238 106.477 234.223 98.3108C240.857 92.0814 268.693 73.5254 281.781 65.0261C291.206 79.0981 294.842 94.7551 295.481 100.825C286.967 106.454 277.263 125.282 273.476 133.993C283.572 144.069 300.352 201.533 299.512 205.278C298.672 209.023 302.647 214.614 304.389 219.8C322.286 246.109 314.946 253.319 309.039 253.636L297.926 239.284C293.131 239.997 281.956 240.953 269.589 241.105C221.812 241.759 206.702 259.146 205.119 267.757C202.942 265.025 201.922 245.745 203.777 241.275C205.632 236.804 203.105 223.032 204.178 219.979C206.496 210.89 195.489 196.605 189.696 190.599L168.239 211.656L140.098 190.325C143.857 187.524 159.853 162.53 167.381 150.383C175.413 141.402 193.513 122.755 201.656 120.02Z" fill="#FF9356"/>
<path d="M125.253 211.085C125.787 209.675 137.19 197.073 142.825 190.949C151.373 196.415 167.872 207.316 165.482 207.195C162.494 207.044 144.235 226.719 142.11 230.049C135.239 240.821 121.871 251.587 117.956 254.32C109.459 260.251 101.61 265.196 99.6864 267.381C101.312 270.554 104.353 277.279 103.518 278.791C102.474 280.68 101.257 284.552 96.9078 289.09C93.4282 292.721 92.5766 289.519 92.5857 287.464C93.8415 283.707 95.9298 276.183 94.2359 276.136C92.1185 276.078 91.7429 281.206 90.6131 286.587C92.5023 300.958 90.8116 300.081 88.8181 298.733C85.0178 296.161 84.7528 281.63 83.8253 283.865C82.8977 286.1 83.6531 290.848 83.8867 296.541C84.1203 302.234 82.8731 302.268 80.5235 301.518C78.1739 300.768 77.3858 282.18 75.5307 286.65C73.6756 291.121 73.7083 304.961 70.3438 304.936C67.6521 304.917 68.9099 294.004 69.8753 288.549C66.6869 296.546 66.5135 298.528 65.9329 296.799C60.6231 289.733 76.89 271.958 85.589 262.881C112.608 213.408 124.587 212.848 125.253 211.085Z" fill="#F8BB84"/>
<path d="M289.864 30.3771C289.951 28.5526 287.763 24.619 278.319 23.4813" stroke="#F8A962" stroke-width="2"/>
<path d="M288.819 27.2653C290.656 26.905 293.5 25.4626 290.181 22.5757C286.863 19.6888 283.229 18.1132 281.827 17.6862" stroke="#F8A962" stroke-width="2"/>
<path d="M291.168 23.014C292.908 23.1991 295.988 22.6264 294.386 18.8552C293.55 16.3657 288.139 14.4122 285.538 13.7466" stroke="#F8A962" stroke-width="2"/>
<path d="M294.154 18.1636C295.382 18.9055 298.035 19.4766 298.823 15.8262" stroke="#F8A962" stroke-width="2"/>
<path d="M303.272 57.8092C298.632 59.983 294.474 57.4292 292.975 55.8806L291.467 56.387C298.221 61.5063 301.774 59.5948 303.272 57.8092Z" fill="#F8A962"/>
<path d="M293.491 34.9305C294.661 34.6659 297.157 33.8533 297.783 32.7196" stroke="#F8A962"/>
<path d="M303.175 21.2902C303.272 22.4119 303.263 24.8004 302.451 25.3808" stroke="#F8A962"/>
<path d="M131.491 215.916C130.725 214.635 126.588 212.561 124.616 211.684L122.064 214.08C128.764 215.293 132.448 217.519 131.491 215.916Z" fill="#F8A962"/>
<path d="M99.4542 266.689C98.9801 265.694 97.5854 263.623 95.7987 263.3" stroke="#F8A962"/>
<path d="M282.53 150.96C238.858 142.848 203.982 175.67 191.756 192.985C196.63 197.504 200.132 203.767 201.39 206.679C233.471 171.282 273.882 169.767 290.077 173.434L282.53 150.96Z" fill="#F7AB80"/>
<path d="M187.458 170.189C184.743 171.101 165.507 192.694 156.228 203.377L167.978 212.128L189.58 190.253C195.469 194.047 206.883 214.293 204.989 217.398C202.554 221.389 205.806 234.822 203.545 240.583C201.736 245.192 203.415 261.019 204.481 268.356C210.996 250.778 234.707 243.842 245.747 242.571L298.419 239.503L309.155 253.982C311.707 253.253 315.732 250.08 311.414 243.219C307.096 236.359 244.933 235.149 235.245 233.785C225.557 232.422 218.74 225.862 212.526 199.862C206.312 173.861 190.851 169.05 187.458 170.189Z" fill="#DE824F"/>
<path d="M150.981 213.988C155.666 205.951 146.027 197.569 140.505 194.036L144.246 188.933C152.455 194.64 168.098 206.239 164.989 206.976C161.88 207.712 148.267 222.979 141.849 230.521C142.941 228.359 146.296 222.025 150.981 213.988Z" fill="#F8A962"/>
<path d="M269.905 122.11C273.638 112.238 287.349 97.0146 293.738 90.6368L294.988 100.605C289.304 104.669 279.766 121.492 275.708 129.396L269.905 122.11Z" fill="#DE824F"/>
<path d="M227.063 115.72C222.009 127.421 206.646 123.218 201.279 120.147C226.427 121.321 222.799 111.766 225.813 105.752C227.96 106.314 230.368 108.07 227.063 115.72Z" fill="#00061E"/>
<path d="M172.066 208.062L143.172 186.985L140.098 190.325L167.978 212.128L172.066 208.062Z" fill="#00061E"/>
<path d="M293.335 101.93C291.732 94.1577 282.268 75.6359 277.982 67.4561L282.419 64.4271C293.842 86.4468 296.254 98.1283 295.974 101.044L293.335 101.93Z" fill="#00061E"/>
<path d="M174.688 142.158C172.661 111.135 189.464 115.778 198.118 121.978L192.028 126.331C183.731 119.114 180.283 132.584 186.408 152.073C192.534 171.563 203.189 209.538 204.001 211.958C192.573 210.409 177.222 180.937 174.688 142.158Z" fill="#0D0F17"/>
<path d="M253.101 85.8149C233.561 73.6011 230.827 91.1146 231.903 101.398L236.775 95.9149C236.191 84.1834 249.913 93.8113 250.842 96.5774C251.585 98.7902 271.31 132.54 281.079 149.138C286.732 172.634 299.243 219.22 304.069 217.599C308.895 215.978 313.793 210.742 315.639 208.327C327.848 198.456 307.972 170.503 311.539 167.381C315.106 164.26 306.139 148.802 303.992 144.907C302.274 141.79 299.814 142.462 298.799 143.187C297.87 140.421 287.54 124.653 282.492 117.114L277.07 124.706C274.302 115.632 265.634 95.1497 253.101 85.8149Z" fill="#0D0F17"/>
<path d="M208.394 261.27C208.792 267.036 211.387 279.426 218.581 282.859C227.573 287.149 234.54 307.895 232.598 310.856C230.655 313.816 216.096 317.936 201.655 332.404" stroke="#264642" stroke-width="2" stroke-dasharray="6 6"/>
<path d="M276.244 289.658C288.67 299.592 315.733 319.797 324.574 321.137C332.986 323.699 323.301 332.338 305.84 332.815C288.38 333.292 266.918 339.345 263.785 340.012" stroke="#264642" stroke-width="2" stroke-dasharray="6 6"/>
</g>
<defs>
<filter id="filter0_d_304_55" x="64.8904" y="7.47815" width="353.214" height="437.071" filterUnits="userSpaceOnUse" color-interpolation-filters="sRGB">
<feFlood flood-opacity="0" result="BackgroundImageFix"/>
<feColorMatrix in="SourceAlpha" type="matrix" values="0 0 0 0 0 0 0 0 0 0 0 0 0 0 0 0 0 0 127 0" result="hardAlpha"/>
<feOffset dx="30" dy="30"/>
<feGaussianBlur stdDeviation="7.5"/>
<feColorMatrix type="matrix" values="0 0 0 0 0 0 0 0 0 0 0 0 0 0 0 0 0 0 0.25 0"/>
<feBlend mode="normal" in2="BackgroundImageFix" result="effect1_dropShadow_304_55"/>
<feBlend mode="normal" in="SourceGraphic" in2="effect1_dropShadow_304_55" result="shape"/>
</filter>
</defs>
</svg>
