<svg width="283" height="107" viewBox="0 0 283 107" fill="none" xmlns="http://www.w3.org/2000/svg">
<path fill-rule="evenodd" clip-rule="evenodd" d="M11.1669 47.2987L15.2695 49.871L15.2051 54.8311L14.9917 59.8493L14.7911 64.8903L14.5777 69.9085L18.6931 72.5036L22.7957 75.0759L26.8982 77.6482L31.0137 80.2435L35.0935 82.8292L39.209 85.4244L43.3115 87.9967L47.5594 85.5914L51.7787 83.0808L55.9978 80.5702L60.2398 78.0461L64.4589 75.5356L68.6781 73.025L72.9201 70.5009L73.1335 65.4829L73.334 60.4418L73.5474 55.4237L73.748 50.3826L77.9898 47.8585L77.6896 56.9329C77.5064 57.038 77.3523 57.1896 77.2427 57.3728C77.1332 57.556 77.0718 57.7643 77.0649 57.9772C77.0705 58.1717 77.1226 58.3612 77.2166 58.5289C77.3106 58.6967 77.4437 58.838 77.6043 58.9402L77.4635 59.3908L76.535 62.0525L78.2194 62.0897L79.8908 62.104L79.1735 59.4738L78.968 59.107C79.1331 58.9976 79.2681 58.8466 79.3595 58.6688C79.4509 58.4911 79.4956 58.2929 79.4893 58.0938C79.5098 57.8381 79.4548 57.5832 79.331 57.3625C79.2073 57.1417 79.0207 56.965 78.7956 56.8557L79.13 47.3024L46.3618 26.6013L47.3825 25.9939L80.1509 46.6949L82.4192 45.3452L86.6385 42.8347L82.5457 40.2259L78.6242 38.463L74.5218 35.8906L70.4063 33.2954L66.2358 30.7635L62.1845 28.283L58.0819 25.7107L53.9794 23.1384L49.7968 20.3692L45.7199 17.8429L41.478 20.367L37.1561 22.6941L32.9368 25.2046L28.695 27.7287L24.4757 30.2393L20.0639 32.406L15.7705 34.8383L11.4448 37.3205L7.19087 39.6071L2.94897 42.1313L7.05154 44.7036L11.1669 47.2987ZM40.7349 40.3127L45.0281 37.8802L49.1436 40.4755L53.2461 43.0478L49.0042 45.5717L44.6013 47.9165L40.3821 50.4271L40.1687 55.4452L44.2712 58.0176L48.4905 55.507L52.7323 52.9829L56.9516 50.4723L61.1708 47.9618L65.4128 45.4377L68.3163 43.71L69.6319 42.9271L66.1454 40.7525L65.5294 40.3548L61.4268 37.7826L57.6718 35.6149L53.5694 33.0426L49.4765 30.4338L45.4421 27.821L41.2001 30.3451L36.9809 32.8557L32.7618 35.3662L28.5198 37.8903L24.3007 40.4009L20.0814 42.9115L23.8206 44.9969L23.6072 50.015L23.4066 55.0561L23.1932 60.0743L23.1251 62.6521L23.038 65.0882L27.1406 67.6606L31.2333 70.2692L35.3358 72.8415L39.5419 75.3827L43.6574 77.978L47.8766 75.4674L52.1186 72.9433L56.3377 70.4327L60.557 67.9222L64.7988 65.3982L64.9994 60.3572L65.2128 55.339L60.9708 57.8631L56.7517 60.3737L52.5325 62.8842L48.2905 65.4082L44.0714 67.9188L39.9559 65.3235L35.8534 62.7513L31.7508 60.179L32.3653 45.0787L36.5844 42.5682L40.7349 40.3127Z" fill="url(#paint0_linear_1654_3114)"/>
<path d="M130.203 52.6254C130.203 53.6701 130.139 54.7582 130.013 55.8899H105.496C105.665 58.1533 106.362 59.8942 107.587 61.1129C108.854 62.2882 110.396 62.8757 112.212 62.8757C114.914 62.8757 116.794 61.7006 117.85 59.3501H129.379C128.788 61.744 127.711 63.8987 126.148 65.8138C124.628 67.7289 122.706 69.2305 120.384 70.3187C118.061 71.4068 115.463 71.9509 112.592 71.9509C109.129 71.9509 106.046 71.1893 103.343 69.6658C100.64 68.1424 98.5282 65.9661 97.0078 63.1369C95.4874 60.3077 94.7272 56.9997 94.7272 53.2129C94.7272 49.4263 95.4663 46.1183 96.9444 43.2891C98.4648 40.46 100.576 38.2836 103.279 36.7603C105.982 35.2367 109.086 34.4751 112.592 34.4751C116.012 34.4751 119.053 35.215 121.714 36.6949C124.374 38.1748 126.444 40.2859 127.922 43.028C129.442 45.7701 130.203 48.9692 130.203 52.6254ZM119.117 49.6873C119.117 47.7723 118.483 46.2488 117.216 45.1173C115.949 43.9856 114.365 43.4196 112.465 43.4196C110.649 43.4196 109.107 43.9637 107.84 45.0519C106.616 46.14 105.856 47.6853 105.56 49.6873H119.117ZM145.484 62.8104H159.673V71.4286H134.65V25.5958H145.484V62.8104Z" fill="#3DA1ED"/>
<path d="M196.894 52.6255C196.894 53.6701 196.831 54.7582 196.705 55.8899H172.188C172.357 58.1533 173.054 59.8942 174.279 61.113C175.547 62.2883 177.087 62.8758 178.904 62.8758C181.607 62.8758 183.485 61.7006 184.542 59.3502H196.071C195.479 61.7441 194.402 63.8987 192.84 65.8139C191.32 67.7289 189.398 69.2305 187.076 70.3188C184.753 71.4069 182.155 71.9509 179.283 71.9509C175.821 71.9509 172.737 71.1893 170.035 69.6658C167.332 68.1424 165.22 65.9661 163.7 63.1369C162.179 60.3078 161.42 56.9997 161.42 53.213C161.42 49.4264 162.159 46.1183 163.636 43.2891C165.156 40.46 167.269 38.2836 169.972 36.7603C172.675 35.2368 175.778 34.4752 179.283 34.4752C182.704 34.4752 185.745 35.215 188.406 36.695C191.067 38.1749 193.136 40.2859 194.614 43.028C196.135 45.7701 196.894 48.9692 196.894 52.6255ZM185.808 49.6874C185.808 47.7723 185.174 46.2488 183.908 45.1173C182.64 43.9856 181.058 43.4197 179.156 43.4197C177.341 43.4197 175.799 43.9637 174.533 45.0519C173.307 46.14 172.548 47.6853 172.252 49.6874H185.808ZM222.881 34.6057C227.019 34.6057 230.314 35.9985 232.763 38.7842C235.255 41.5264 236.501 45.3131 236.501 50.1445V71.4286H225.731V51.6461C225.731 49.2086 225.119 47.3153 223.895 45.9659C222.67 44.6167 221.023 43.942 218.954 43.942C216.883 43.942 215.237 44.6167 214.011 45.9659C212.787 47.3153 212.175 49.2086 212.175 51.6461V71.4286H201.343V34.9975H212.175V39.8289C213.274 38.2183 214.751 36.9561 216.609 36.0421C218.467 35.0845 220.558 34.6057 222.881 34.6057ZM240.608 53.1478C240.608 49.4045 241.283 46.1183 242.635 43.2891C244.028 40.46 245.908 38.2836 248.273 36.7603C250.638 35.2368 253.278 34.4752 256.191 34.4752C258.684 34.4752 260.858 34.9975 262.716 36.0421C264.616 37.0866 266.073 38.4578 267.087 40.1552V34.9975H277.92V71.4286H267.087V66.2709C266.032 67.9683 264.553 69.3395 262.653 70.3839C260.795 71.4286 258.62 71.9509 256.128 71.9509C253.256 71.9509 250.638 71.1893 248.273 69.6658C245.908 68.0988 244.028 65.9009 242.635 63.0716C241.283 60.199 240.608 56.8909 240.608 53.1478ZM267.087 53.213C267.087 50.4274 266.327 48.2293 264.807 46.6189C263.329 45.0083 261.512 44.2031 259.359 44.2031C257.205 44.2031 255.368 45.0083 253.848 46.6189C252.37 48.1857 251.63 50.3621 251.63 53.1478C251.63 55.9334 252.37 58.1533 253.848 59.8072C255.368 61.4177 257.205 62.2229 259.359 62.2229C261.512 62.2229 263.329 61.4177 264.807 59.8072C266.327 58.1967 267.087 55.9987 267.087 53.213Z" fill="#F2994A"/>
<defs>
<linearGradient id="paint0_linear_1654_3114" x1="46" y1="52" x2="70.5" y2="40" gradientUnits="userSpaceOnUse">
<stop stop-color="#3D9FEB"/>
<stop offset="1" stop-color="#223281"/>
</linearGradient>
</defs>
</svg>
