<svg width="313" height="221" viewBox="0 0 313 221" fill="none" xmlns="http://www.w3.org/2000/svg">
<rect y="62" width="313" height="98" rx="49" fill="#044662" fill-opacity="0.39"/>
<rect x="107" y="34" width="172" height="80" rx="40" fill="#044662" fill-opacity="0.25"/>
<rect x="10" y="172" width="120" height="49" rx="24.5" fill="#044662" fill-opacity="0.3"/>
<rect x="223" width="34" height="20" rx="10" fill="#044662" fill-opacity="0.39"/>
<path fill-rule="evenodd" clip-rule="evenodd" d="M26.1669 105.299L30.2694 107.871L30.205 112.831L29.9916 117.849L29.7911 122.89L29.5777 127.908L33.693 130.504L37.7956 133.076L41.8981 135.648L46.0136 138.243L50.0934 140.829L54.2089 143.424L58.3114 145.997L62.5593 143.591L66.7786 141.081L70.9978 138.57L75.2397 136.046L79.4589 133.536L83.678 131.025L87.92 128.501L88.1334 123.483L88.334 118.442L88.5474 113.424L88.7479 108.383L92.9897 105.858L92.6896 114.933C92.5063 115.038 92.3523 115.19 92.2427 115.373C92.1331 115.556 92.0717 115.764 92.0648 115.977C92.0704 116.172 92.1226 116.361 92.2165 116.529C92.3105 116.697 92.4437 116.838 92.6042 116.94L92.4635 117.391L91.5349 120.053L93.2193 120.09L94.8908 120.104L94.1734 117.474L93.968 117.107C94.133 116.998 94.268 116.847 94.3594 116.669C94.4508 116.491 94.4956 116.293 94.4892 116.094C94.5097 115.838 94.4547 115.583 94.331 115.362C94.2072 115.142 94.0207 114.965 93.7956 114.856L94.13 105.302L61.3617 84.6013L62.3824 83.9939L95.1508 104.695L97.4191 103.345L101.638 100.835L97.5456 98.2259L93.6242 96.4629L89.5217 93.8906L85.4062 91.2954L81.2357 88.7635L77.1845 86.283L73.0818 83.7107L68.9794 81.1384L64.7967 78.3692L60.7198 75.8429L56.478 78.367L52.156 80.694L47.9367 83.2046L43.6949 85.7287L39.4756 88.2393L35.0638 90.406L30.7705 92.8382L26.4447 95.3205L22.1908 97.6071L17.9489 100.131L22.0515 102.704L26.1669 105.299ZM55.7348 98.3126L60.028 95.8802L64.1435 98.4754L68.246 101.048L64.0042 103.572L59.6012 105.917L55.3821 108.427L55.1687 113.445L59.2712 116.018L63.4905 113.507L67.7323 110.983L71.9516 108.472L76.1707 105.962L80.4127 103.438L83.3162 101.71L84.6319 100.927L81.1453 98.7525L80.5294 98.3548L76.4267 95.7826L72.6718 93.6149L68.5693 91.0426L64.4765 88.4338L60.442 85.821L56.2 88.3451L51.9809 90.8557L47.7617 93.3662L43.5198 95.8903L39.3006 98.4009L35.0813 100.911L38.8205 102.997L38.6071 108.015L38.4065 113.056L38.1931 118.074L38.125 120.652L38.0379 123.088L42.1406 125.661L46.2332 128.269L50.3357 130.842L54.5419 133.383L58.6574 135.978L62.8765 133.467L67.1185 130.943L71.3376 128.433L75.5569 125.922L79.7988 123.398L79.9993 118.357L80.2127 113.339L75.9708 115.863L71.7516 118.374L67.5325 120.884L63.2905 123.408L59.0713 125.919L54.9558 123.324L50.8534 120.751L46.7507 118.179L47.3652 103.079L51.5844 100.568L55.7348 98.3126Z" fill="white"/>
<path d="M145.203 110.625C145.203 111.67 145.139 112.758 145.013 113.89H120.496C120.665 116.153 121.362 117.894 122.587 119.113C123.854 120.288 125.396 120.876 127.212 120.876C129.914 120.876 131.794 119.701 132.85 117.35H144.379C143.788 119.744 142.711 121.899 141.148 123.814C139.628 125.729 137.706 127.231 135.384 128.319C133.061 129.407 130.463 129.951 127.592 129.951C124.129 129.951 121.046 129.189 118.343 127.666C115.64 126.142 113.528 123.966 112.008 121.137C110.487 118.308 109.727 115 109.727 111.213C109.727 107.426 110.466 104.118 111.944 101.289C113.465 98.46 115.576 96.2836 118.279 94.7603C120.982 93.2368 124.086 92.4751 127.592 92.4751C131.012 92.4751 134.053 93.215 136.714 94.6949C139.374 96.1749 141.444 98.2859 142.922 101.028C144.442 103.77 145.203 106.969 145.203 110.625ZM134.117 107.687C134.117 105.772 133.483 104.249 132.216 103.117C130.949 101.986 129.365 101.42 127.465 101.42C125.649 101.42 124.107 101.964 122.84 103.052C121.616 104.14 120.856 105.685 120.56 107.687H134.117ZM160.484 120.81H174.673V129.429H149.65V83.5958H160.484V120.81Z" fill="white"/>
<path d="M211.894 110.625C211.894 111.67 211.831 112.758 211.705 113.89H187.188C187.357 116.153 188.055 117.894 189.279 119.113C190.547 120.288 192.087 120.876 193.904 120.876C196.607 120.876 198.485 119.701 199.542 117.35H211.071C210.479 119.744 209.402 121.899 207.84 123.814C206.32 125.729 204.398 127.231 202.076 128.319C199.753 129.407 197.155 129.951 194.283 129.951C190.821 129.951 187.737 129.189 185.035 127.666C182.332 126.142 180.22 123.966 178.7 121.137C177.179 118.308 176.42 115 176.42 111.213C176.42 107.426 177.159 104.118 178.636 101.289C180.156 98.46 182.269 96.2836 184.972 94.7603C187.675 93.2368 190.778 92.4751 194.283 92.4751C197.704 92.4751 200.745 93.215 203.406 94.6949C206.067 96.1748 208.136 98.2859 209.614 101.028C211.135 103.77 211.894 106.969 211.894 110.625ZM200.808 107.687C200.808 105.772 200.174 104.249 198.908 103.117C197.64 101.986 196.058 101.42 194.156 101.42C192.341 101.42 190.799 101.964 189.533 103.052C188.307 104.14 187.548 105.685 187.252 107.687H200.808ZM237.881 92.6056C242.019 92.6056 245.314 93.9985 247.763 96.7842C250.255 99.5263 251.501 103.313 251.501 108.144V129.429H240.731V109.646C240.731 107.209 240.119 105.315 238.895 103.966C237.67 102.617 236.023 101.942 233.954 101.942C231.883 101.942 230.237 102.617 229.012 103.966C227.787 105.315 227.175 107.209 227.175 109.646V129.429H216.343V92.9975H227.175V97.8289C228.274 96.2183 229.751 94.9561 231.609 94.0421C233.467 93.0845 235.558 92.6056 237.881 92.6056ZM255.608 111.148C255.608 107.404 256.284 104.118 257.635 101.289C259.028 98.46 260.908 96.2836 263.273 94.7603C265.638 93.2368 268.278 92.4751 271.192 92.4751C273.684 92.4751 275.858 92.9975 277.716 94.0421C279.617 95.0866 281.073 96.4577 282.087 98.1552V92.9975H292.92V129.429H282.087V124.271C281.032 125.968 279.553 127.339 277.653 128.384C275.795 129.429 273.62 129.951 271.128 129.951C268.256 129.951 265.638 129.189 263.273 127.666C260.908 126.099 259.028 123.901 257.635 121.072C256.284 118.199 255.608 114.891 255.608 111.148ZM282.087 111.213C282.087 108.427 281.328 106.229 279.807 104.619C278.329 103.008 276.512 102.203 274.359 102.203C272.205 102.203 270.369 103.008 268.848 104.619C267.37 106.186 266.63 108.362 266.63 111.148C266.63 113.933 267.37 116.153 268.848 117.807C270.369 119.418 272.205 120.223 274.359 120.223C276.512 120.223 278.329 119.418 279.807 117.807C281.328 116.197 282.087 113.999 282.087 111.213Z" fill="white"/>
</svg>
