<svg width="283" height="125" viewBox="0 0 283 125" fill="none" xmlns="http://www.w3.org/2000/svg">
<path fill-rule="evenodd" clip-rule="evenodd" d="M11.1669 47.2986L15.2694 49.8709L15.205 54.831L14.9916 59.8492L14.7911 64.8902L14.5777 69.9084L18.693 72.5035L22.7956 75.0758L26.8981 77.6481L31.0136 80.2434L35.0934 82.8291L39.2089 85.4243L43.3114 87.9966L47.5593 85.5913L51.7786 83.0807L55.9978 80.5702L60.2397 78.046L64.4589 75.5355L68.678 73.0249L72.92 70.5008L73.1334 65.4828L73.334 60.4417L73.5474 55.4236L73.7479 50.3825L77.9897 47.8584L77.6896 56.9328C77.5063 57.0379 77.3523 57.1895 77.2427 57.3727C77.1331 57.5559 77.0717 57.7642 77.0648 57.9771C77.0704 58.1716 77.1226 58.3611 77.2165 58.5288C77.3106 58.6966 77.4437 58.8379 77.6042 58.9401L77.4635 59.3907L76.5349 62.0524L78.2193 62.0896L79.8908 62.1039L79.1734 59.4737L78.968 59.1069C79.133 58.9975 79.268 58.8465 79.3594 58.6687C79.4508 58.491 79.4956 58.2928 79.4892 58.0937C79.5097 57.838 79.4547 57.5831 79.331 57.3624C79.2072 57.1416 79.0207 56.9649 78.7956 56.8556L79.13 47.3023L46.3618 26.6013L47.3824 25.9938L80.1508 46.6949L82.4191 45.3452L86.6384 42.8346L82.5456 40.2258L78.6242 38.4629L74.5217 35.8905L70.4062 33.2953L66.2357 30.7635L62.1845 28.283L58.0819 25.7106L53.9794 23.1383L49.7967 20.3691L45.7198 17.8428L41.478 20.3669L37.156 22.694L32.9367 25.2045L28.6949 27.7286L24.4756 30.2392L20.0638 32.4059L15.7705 34.8382L11.4447 37.3204L7.19081 39.6071L2.94892 42.1312L7.05148 44.7035L11.1669 47.2986ZM40.7348 40.3126L45.028 37.8801L49.1435 40.4754L53.246 43.0477L49.0042 45.5716L44.6012 47.9164L40.3821 50.427L40.1687 55.4452L44.2712 58.0175L48.4905 55.5069L52.7323 52.9828L56.9516 50.4722L61.1707 47.9617L65.4127 45.4376L68.3162 43.7099L69.6319 42.927L66.1453 40.7524L65.5294 40.3547L61.4267 37.7825L57.6718 35.6148L53.5693 33.0425L49.4765 30.4337L45.442 27.8209L41.2 30.345L36.9809 32.8556L32.7617 35.3661L28.5198 37.8902L24.3006 40.4008L20.0813 42.9114L23.8205 44.9968L23.6071 50.0149L23.4066 55.056L23.1931 60.0742L23.125 62.652L23.0379 65.0882L27.1406 67.6605L31.2332 70.2691L35.3357 72.8414L39.5419 75.3827L43.6574 77.9779L47.8765 75.4673L52.1185 72.9432L56.3377 70.4327L60.5569 67.9221L64.7988 65.3981L64.9993 60.3571L65.2127 55.3389L60.9708 57.863L56.7516 60.3736L52.5325 62.8841L48.2905 65.4081L44.0713 67.9187L39.9558 65.3234L35.8534 62.7513L31.7507 60.1789L32.3652 45.0786L36.5844 42.5681L40.7348 40.3126Z" fill="white"/>
<path d="M130.203 52.6256C130.203 53.6702 130.139 54.7583 130.013 55.89H105.496C105.665 58.1534 106.362 59.8943 107.587 61.1131C108.854 62.2884 110.396 62.8759 112.212 62.8759C114.914 62.8759 116.794 61.7007 117.85 59.3503H129.379C128.788 61.7442 127.711 63.8988 126.148 65.814C124.628 67.729 122.706 69.2306 120.384 70.3189C118.061 71.407 115.463 71.951 112.592 71.951C109.129 71.951 106.046 71.1894 103.343 69.6659C100.64 68.1425 98.5282 65.9662 97.0078 63.137C95.4874 60.3079 94.7272 56.9998 94.7272 53.2131C94.7272 49.4265 95.4663 46.1184 96.9444 43.2893C98.4648 40.4601 100.576 38.2837 103.279 36.7604C105.982 35.2369 109.086 34.4753 112.592 34.4753C116.012 34.4753 119.053 35.2151 121.714 36.6951C124.374 38.175 126.444 40.286 127.922 43.0281C129.442 45.7702 130.203 48.9693 130.203 52.6256ZM119.117 49.6875C119.117 47.7724 118.483 46.2489 117.216 45.1174C115.949 43.9857 114.365 43.4198 112.465 43.4198C110.649 43.4198 109.107 43.9638 107.84 45.0521C106.616 46.1401 105.856 47.6854 105.56 49.6875H119.117ZM145.484 62.8105H159.673V71.4287H134.65V25.5959H145.484V62.8105Z" fill="white"/>
<path d="M196.894 52.6254C196.894 53.67 196.831 54.7581 196.705 55.8898H172.188C172.357 58.1532 173.055 59.8942 174.279 61.1129C175.547 62.2882 177.087 62.8757 178.904 62.8757C181.607 62.8757 183.485 61.7006 184.542 59.3501H196.071C195.479 61.744 194.402 63.8986 192.84 65.8138C191.32 67.7288 189.398 69.2305 187.076 70.3187C184.753 71.4068 182.155 71.9509 179.283 71.9509C175.821 71.9509 172.737 71.1892 170.035 69.6657C167.332 68.1424 165.22 65.966 163.7 63.1369C162.179 60.3077 161.42 56.9997 161.42 53.2129C161.42 49.4263 162.159 46.1183 163.636 43.2891C165.156 40.4599 167.269 38.2836 169.972 36.7602C172.675 35.2367 175.778 34.4751 179.283 34.4751C182.704 34.4751 185.745 35.215 188.406 36.6949C191.067 38.1748 193.136 40.2858 194.614 43.0279C196.135 45.77 196.894 48.9691 196.894 52.6254ZM185.808 49.6873C185.808 47.7723 185.174 46.2488 183.908 45.1172C182.64 43.9855 181.058 43.4196 179.156 43.4196C177.341 43.4196 175.799 43.9636 174.533 45.0519C173.307 46.14 172.548 47.6852 172.252 49.6873H185.808ZM222.881 34.6056C227.019 34.6056 230.314 35.9985 232.763 38.7842C235.255 41.5263 236.501 45.313 236.501 50.1444V71.4285H225.731V51.6461C225.731 49.2086 225.119 47.3153 223.895 45.9659C222.67 44.6166 221.023 43.9419 218.954 43.9419C216.883 43.9419 215.237 44.6166 214.012 45.9659C212.787 47.3153 212.175 49.2086 212.175 51.6461V71.4285H201.343V34.9974H212.175V39.8288C213.274 38.2183 214.751 36.9561 216.609 36.0421C218.467 35.0845 220.558 34.6056 222.881 34.6056ZM240.608 53.1477C240.608 49.4044 241.284 46.1183 242.635 43.2891C244.028 40.4599 245.908 38.2836 248.273 36.7602C250.638 35.2367 253.278 34.4751 256.192 34.4751C258.684 34.4751 260.858 34.9974 262.716 36.0421C264.617 37.0866 266.073 38.4577 267.087 40.1552V34.9974H277.92V71.4285H267.087V66.2708C266.032 67.9683 264.553 69.3394 262.653 70.3839C260.795 71.4285 258.62 71.9509 256.128 71.9509C253.256 71.9509 250.638 71.1892 248.273 69.6657C245.908 68.0988 244.028 65.9009 242.635 63.0715C241.284 60.1989 240.608 56.8909 240.608 53.1477ZM267.087 53.2129C267.087 50.4273 266.328 48.2293 264.807 46.6189C263.329 45.0083 261.512 44.2031 259.359 44.2031C257.205 44.2031 255.369 45.0083 253.848 46.6189C252.37 48.1857 251.63 50.362 251.63 53.1477C251.63 55.9333 252.37 58.1532 253.848 59.8071C255.369 61.4177 257.205 62.2229 259.359 62.2229C261.512 62.2229 263.329 61.4177 264.807 59.8071C266.328 58.1967 267.087 55.9986 267.087 53.2129Z" fill="white"/>
</svg>
