<svg width="17" height="15" viewBox="0 0 17 15" fill="none" xmlns="http://www.w3.org/2000/svg">
<path d="M8.49996 10.3322C10.0642 10.3322 11.3322 9.06416 11.3322 7.49994C11.3322 5.93573 10.0642 4.66768 8.49996 4.66768C6.93574 4.66768 5.66769 5.93573 5.66769 7.49994C5.66769 9.06416 6.93574 10.3322 8.49996 10.3322Z" fill="#02499B"/>
<path d="M8.49996 10.3322C10.0642 10.3322 11.3322 9.06416 11.3322 7.49994C11.3322 5.93573 10.0642 4.66768 8.49996 4.66768C6.93574 4.66768 5.66769 5.93573 5.66769 7.49994C5.66769 9.06416 6.93574 10.3322 8.49996 10.3322Z" fill="white" fill-opacity="0.1"/>
<path d="M16.4807 5.67254C15.3825 3.88396 12.8844 0.883142 8.50001 0.883142C4.11564 0.883142 1.61757 3.88396 0.519351 5.67254C-0.173076 6.7925 -0.173076 8.20762 0.519351 9.32761C1.61757 11.1162 4.11564 14.117 8.50001 14.117C12.8844 14.117 15.3825 11.1162 16.4807 9.32761C17.1731 8.20762 17.1731 6.7925 16.4807 5.67254ZM8.50001 11.7485C6.15369 11.7485 4.25159 9.84639 4.25159 7.50006C4.25159 5.15374 6.15369 3.25164 8.50001 3.25164C10.8463 3.25164 12.7484 5.15374 12.7484 7.50006C12.7461 9.84542 10.8454 11.7461 8.50001 11.7485Z" fill="#02499B"/>
<path d="M16.4807 5.67254C15.3825 3.88396 12.8844 0.883142 8.50001 0.883142C4.11564 0.883142 1.61757 3.88396 0.519351 5.67254C-0.173076 6.7925 -0.173076 8.20762 0.519351 9.32761C1.61757 11.1162 4.11564 14.117 8.50001 14.117C12.8844 14.117 15.3825 11.1162 16.4807 9.32761C17.1731 8.20762 17.1731 6.7925 16.4807 5.67254ZM8.50001 11.7485C6.15369 11.7485 4.25159 9.84639 4.25159 7.50006C4.25159 5.15374 6.15369 3.25164 8.50001 3.25164C10.8463 3.25164 12.7484 5.15374 12.7484 7.50006C12.7461 9.84542 10.8454 11.7461 8.50001 11.7485Z" fill="white" fill-opacity="0.1"/>
</svg>
