<svg width="89" height="62" viewBox="0 0 89 62" fill="none" xmlns="http://www.w3.org/2000/svg">
<path d="M8.928 40.312C8.208 40.312 7.584 40.072 7.056 39.592C6.576 39.112 6.288 38.416 6.192 37.504L3.528 9.496L3.456 8.776C3.456 7.288 3.96 6.112 4.968 5.248C6.024 4.336 7.344 3.88 8.928 3.88C10.608 3.88 11.976 4.408 13.032 5.464C14.088 6.472 14.52 7.84 14.328 9.568L11.664 37.504C11.568 38.416 11.256 39.112 10.728 39.592C10.248 40.072 9.648 40.312 8.928 40.312ZM8.928 55.432C7.392 55.432 6.12 54.928 5.112 53.92C4.104 52.864 3.6 51.568 3.6 50.032C3.6 48.496 4.104 47.224 5.112 46.216C6.12 45.16 7.392 44.632 8.928 44.632C10.464 44.632 11.736 45.16 12.744 46.216C13.752 47.224 14.256 48.496 14.256 50.032C14.256 51.568 13.752 52.864 12.744 53.92C11.736 54.928 10.464 55.432 8.928 55.432Z" fill="#081238"/>
<path d="M48.232 47.328C48.052 47.328 47.896 47.268 47.764 47.148C47.644 47.028 47.572 46.854 47.548 46.626L46.882 39.624L46.864 39.444C46.864 39.072 46.99 38.778 47.242 38.562C47.506 38.334 47.836 38.22 48.232 38.22C48.652 38.22 48.994 38.352 49.258 38.616C49.522 38.868 49.63 39.21 49.582 39.642L48.916 46.626C48.892 46.854 48.814 47.028 48.682 47.148C48.562 47.268 48.412 47.328 48.232 47.328ZM48.232 51.108C47.848 51.108 47.53 50.982 47.278 50.73C47.026 50.466 46.9 50.142 46.9 49.758C46.9 49.374 47.026 49.056 47.278 48.804C47.53 48.54 47.848 48.408 48.232 48.408C48.616 48.408 48.934 48.54 49.186 48.804C49.438 49.056 49.564 49.374 49.564 49.758C49.564 50.142 49.438 50.466 49.186 50.73C48.934 50.982 48.616 51.108 48.232 51.108Z" fill="#081238"/>
<path d="M35.464 18.656C35.104 18.656 34.792 18.536 34.528 18.296C34.288 18.056 34.144 17.708 34.096 17.252L32.764 3.248L32.728 2.888C32.728 2.144 32.98 1.556 33.484 1.124C34.012 0.667999 34.672 0.439999 35.464 0.439999C36.304 0.439999 36.988 0.703999 37.516 1.232C38.044 1.736 38.26 2.42 38.164 3.284L36.832 17.252C36.784 17.708 36.628 18.056 36.364 18.296C36.124 18.536 35.824 18.656 35.464 18.656ZM35.464 26.216C34.696 26.216 34.06 25.964 33.556 25.46C33.052 24.932 32.8 24.284 32.8 23.516C32.8 22.748 33.052 22.112 33.556 21.608C34.06 21.08 34.696 20.816 35.464 20.816C36.232 20.816 36.868 21.08 37.372 21.608C37.876 22.112 38.128 22.748 38.128 23.516C38.128 24.284 37.876 24.932 37.372 25.46C36.868 25.964 36.232 26.216 35.464 26.216Z" fill="#081238"/>
</svg>
