<svg width="30" height="47" viewBox="0 0 30 47" fill="none" xmlns="http://www.w3.org/2000/svg">
<path d="M15.016 32.944C14.2907 32.944 13.6933 32.688 13.224 32.176C12.7973 31.664 12.584 30.96 12.584 30.064C12.584 27.7173 13.0107 25.7333 13.864 24.112C14.7173 22.4907 15.9547 20.72 17.576 18.8C18.856 17.264 19.7947 15.984 20.392 14.96C20.9893 13.936 21.288 12.784 21.288 11.504C21.288 10.096 20.7547 8.98667 19.688 8.176C18.664 7.32267 17.256 6.896 15.464 6.896C13.928 6.896 12.456 7.23733 11.048 7.92C9.64 8.56 7.99733 9.49866 6.12 10.736C5.05333 11.3333 4.17867 11.632 3.496 11.632C2.77067 11.632 2.13067 11.312 1.576 10.672C1.064 9.98933 0.808 9.2 0.808 8.304C0.808 7.06666 1.32 6.064 2.344 5.296C4.136 3.76 6.248 2.56533 8.68 1.712C11.112 0.815997 13.5653 0.367996 16.04 0.367996C18.6427 0.367996 20.9467 0.815997 22.952 1.712C25 2.608 26.5787 3.84533 27.688 5.424C28.84 7.00267 29.416 8.816 29.416 10.864C29.416 13.0827 28.8827 15.024 27.816 16.688C26.7493 18.3093 25.192 20.144 23.144 22.192C21.3947 23.984 20.072 25.4987 19.176 26.736C18.3227 27.9307 17.7893 29.296 17.576 30.832C17.448 31.5147 17.1493 32.048 16.68 32.432C16.2533 32.7733 15.6987 32.944 15.016 32.944ZM15.144 46.384C13.7787 46.384 12.648 45.936 11.752 45.04C10.856 44.1013 10.408 42.9493 10.408 41.584C10.408 40.2187 10.856 39.088 11.752 38.192C12.648 37.2533 13.7787 36.784 15.144 36.784C16.5093 36.784 17.64 37.2533 18.536 38.192C19.432 39.088 19.88 40.2187 19.88 41.584C19.88 42.9493 19.4107 44.1013 18.472 45.04C17.576 45.936 16.4667 46.384 15.144 46.384Z" fill="#081238"/>
</svg>
