<svg width="12" height="53" viewBox="0 0 12 53" fill="none" xmlns="http://www.w3.org/2000/svg">
<path d="M5.928 37.312C5.208 37.312 4.584 37.072 4.056 36.592C3.576 36.112 3.288 35.416 3.192 34.504L0.528 6.496L0.456 5.776C0.456 4.288 0.96 3.112 1.968 2.248C3.024 1.336 4.344 0.879997 5.928 0.879997C7.608 0.879997 8.976 1.408 10.032 2.464C11.088 3.472 11.52 4.84 11.328 6.568L8.664 34.504C8.568 35.416 8.256 36.112 7.728 36.592C7.248 37.072 6.648 37.312 5.928 37.312ZM5.928 52.432C4.392 52.432 3.12 51.928 2.112 50.92C1.104 49.864 0.6 48.568 0.6 47.032C0.6 45.496 1.104 44.224 2.112 43.216C3.12 42.16 4.392 41.632 5.928 41.632C7.464 41.632 8.736 42.16 9.744 43.216C10.752 44.224 11.256 45.496 11.256 47.032C11.256 48.568 10.752 49.864 9.744 50.92C8.736 51.928 7.464 52.432 5.928 52.432Z" fill="#081238"/>
</svg>
