<svg width="87" height="62" viewBox="0 0 87 62" fill="none" xmlns="http://www.w3.org/2000/svg">
<path d="M15.016 39.944C14.2907 39.944 13.6933 39.688 13.224 39.176C12.7973 38.664 12.584 37.96 12.584 37.064C12.584 34.7173 13.0107 32.7333 13.864 31.112C14.7173 29.4907 15.9547 27.72 17.576 25.8C18.856 24.264 19.7947 22.984 20.392 21.96C20.9893 20.936 21.288 19.784 21.288 18.504C21.288 17.096 20.7547 15.9867 19.688 15.176C18.664 14.3227 17.256 13.896 15.464 13.896C13.928 13.896 12.456 14.2373 11.048 14.92C9.64 15.56 7.99733 16.4987 6.12 17.736C5.05333 18.3333 4.17867 18.632 3.496 18.632C2.77067 18.632 2.13067 18.312 1.576 17.672C1.064 16.9893 0.808 16.2 0.808 15.304C0.808 14.0667 1.32 13.064 2.344 12.296C4.136 10.76 6.248 9.56533 8.68 8.712C11.112 7.816 13.5653 7.368 16.04 7.368C18.6427 7.368 20.9467 7.816 22.952 8.712C25 9.608 26.5787 10.8453 27.688 12.424C28.84 14.0027 29.416 15.816 29.416 17.864C29.416 20.0827 28.8827 22.024 27.816 23.688C26.7493 25.3093 25.192 27.144 23.144 29.192C21.3947 30.984 20.072 32.4987 19.176 33.736C18.3227 34.9307 17.7893 36.296 17.576 37.832C17.448 38.5147 17.1493 39.048 16.68 39.432C16.2533 39.7733 15.6987 39.944 15.016 39.944ZM15.144 53.384C13.7787 53.384 12.648 52.936 11.752 52.04C10.856 51.1013 10.408 49.9493 10.408 48.584C10.408 47.2187 10.856 46.088 11.752 45.192C12.648 44.2533 13.7787 43.784 15.144 43.784C16.5093 43.784 17.64 44.2533 18.536 45.192C19.432 46.088 19.88 47.2187 19.88 48.584C19.88 49.9493 19.4107 51.1013 18.472 52.04C17.576 52.936 16.4667 53.384 15.144 53.384Z" fill="#081238"/>
<path d="M43.942 44.328C43.738 44.328 43.57 44.256 43.438 44.112C43.318 43.968 43.258 43.77 43.258 43.518C43.258 42.858 43.378 42.3 43.618 41.844C43.858 41.388 44.206 40.89 44.662 40.35C45.022 39.918 45.286 39.558 45.454 39.27C45.622 38.982 45.706 38.658 45.706 38.298C45.706 37.902 45.556 37.59 45.256 37.362C44.968 37.122 44.572 37.002 44.068 37.002C43.636 37.002 43.222 37.098 42.826 37.29C42.43 37.47 41.968 37.734 41.44 38.082C41.14 38.25 40.894 38.334 40.702 38.334C40.498 38.334 40.318 38.244 40.162 38.064C40.018 37.872 39.946 37.65 39.946 37.398C39.946 37.05 40.09 36.768 40.378 36.552C40.882 36.12 41.476 35.784 42.16 35.544C42.844 35.292 43.534 35.166 44.23 35.166C44.962 35.166 45.61 35.292 46.174 35.544C46.75 35.796 47.194 36.144 47.506 36.588C47.83 37.032 47.992 37.542 47.992 38.118C47.992 38.742 47.842 39.288 47.542 39.756C47.242 40.212 46.804 40.728 46.228 41.304C45.736 41.808 45.364 42.234 45.112 42.582C44.872 42.918 44.722 43.302 44.662 43.734C44.626 43.926 44.542 44.076 44.41 44.184C44.29 44.28 44.134 44.328 43.942 44.328ZM43.978 48.108C43.594 48.108 43.276 47.982 43.024 47.73C42.772 47.466 42.646 47.142 42.646 46.758C42.646 46.374 42.772 46.056 43.024 45.804C43.276 45.54 43.594 45.408 43.978 45.408C44.362 45.408 44.68 45.54 44.932 45.804C45.184 46.056 45.31 46.374 45.31 46.758C45.31 47.142 45.178 47.466 44.914 47.73C44.662 47.982 44.35 48.108 43.978 48.108Z" fill="#081238"/>
<path d="M50.57 15.88C50.23 15.88 49.95 15.76 49.73 15.52C49.53 15.28 49.43 14.95 49.43 14.53C49.43 13.43 49.63 12.5 50.03 11.74C50.43 10.98 51.01 10.15 51.77 9.25C52.37 8.53 52.81 7.93 53.09 7.45C53.37 6.97 53.51 6.43 53.51 5.83C53.51 5.17 53.26 4.65 52.76 4.27C52.28 3.87 51.62 3.67 50.78 3.67C50.06 3.67 49.37 3.83 48.71 4.15C48.05 4.45 47.28 4.89 46.4 5.47C45.9 5.75 45.49 5.89 45.17 5.89C44.83 5.89 44.53 5.74 44.27 5.44C44.03 5.12 43.91 4.75 43.91 4.33C43.91 3.75 44.15 3.28 44.63 2.92C45.47 2.2 46.46 1.64 47.6 1.24C48.74 0.819999 49.89 0.609998 51.05 0.609998C52.27 0.609998 53.35 0.819999 54.29 1.24C55.25 1.66 55.99 2.24 56.51 2.98C57.05 3.72 57.32 4.57 57.32 5.53C57.32 6.57 57.07 7.48 56.57 8.26C56.07 9.02 55.34 9.88 54.38 10.84C53.56 11.68 52.94 12.39 52.52 12.97C52.12 13.53 51.87 14.17 51.77 14.89C51.71 15.21 51.57 15.46 51.35 15.64C51.15 15.8 50.89 15.88 50.57 15.88ZM50.63 22.18C49.99 22.18 49.46 21.97 49.04 21.55C48.62 21.11 48.41 20.57 48.41 19.93C48.41 19.29 48.62 18.76 49.04 18.34C49.46 17.9 49.99 17.68 50.63 17.68C51.27 17.68 51.8 17.9 52.22 18.34C52.64 18.76 52.85 19.29 52.85 19.93C52.85 20.57 52.63 21.11 52.19 21.55C51.77 21.97 51.25 22.18 50.63 22.18Z" fill="#081238"/>
</svg>
