<svg width="17" height="17" viewBox="0 0 17 17" fill="none" xmlns="http://www.w3.org/2000/svg">
<g clip-path="url(#clip0_65_366)">
<path d="M16.4806 6.66369C15.8414 5.61695 15.0351 4.68197 14.0937 3.89584L16.0763 1.91326C16.348 1.63196 16.3402 1.18372 16.0589 0.912055C15.7845 0.647026 15.3495 0.647026 15.0751 0.912055L12.919 3.07095C11.5824 2.27709 10.0544 1.8633 8.49995 1.87432C4.11628 1.87432 1.6182 4.87514 0.519289 6.66372C-0.173137 7.78368 -0.173137 9.1988 0.519289 10.3188C1.15851 11.3655 1.96482 12.3005 2.90621 13.0866L0.92362 15.0692C0.642328 15.3409 0.634528 15.7892 0.906195 16.0704C1.17786 16.3517 1.62614 16.3595 1.9074 16.0879C1.9133 16.0821 1.91911 16.0763 1.92482 16.0704L4.08584 13.9094C5.42074 14.7032 6.94692 15.1176 8.49995 15.1082C12.8836 15.1082 15.3817 12.1073 16.4806 10.3188C17.1731 9.1988 17.1731 7.78368 16.4806 6.66369ZM4.25156 8.49124C4.24755 6.1488 6.14317 4.24664 8.48561 4.24262C9.37191 4.24109 10.2364 4.51727 10.9577 5.03233L9.92958 6.06045C9.49797 5.80016 9.00399 5.66143 8.49998 5.65897C6.93577 5.65897 5.66771 6.92703 5.66771 8.49124C5.67017 8.99524 5.80891 9.48922 6.06919 9.92084L5.04107 10.949C4.52768 10.2323 4.2516 9.37282 4.25156 8.49124ZM8.49998 12.7397C7.6184 12.7396 6.75896 12.4636 6.04227 11.9502L7.07039 10.922C7.502 11.1823 7.99598 11.3211 8.49998 11.3235C10.0642 11.3235 11.3323 10.0555 11.3323 8.49124C11.3298 7.98724 11.1911 7.49326 10.9308 7.06165L11.9589 6.03353C13.3202 7.93981 12.8783 10.5887 10.9721 11.95C10.2508 12.465 9.38628 12.7412 8.49998 12.7397Z" fill="#02499B"/>
<path d="M16.4806 6.66369C15.8414 5.61695 15.0351 4.68197 14.0937 3.89584L16.0763 1.91326C16.348 1.63196 16.3402 1.18372 16.0589 0.912055C15.7845 0.647026 15.3495 0.647026 15.0751 0.912055L12.919 3.07095C11.5824 2.27709 10.0544 1.8633 8.49995 1.87432C4.11628 1.87432 1.6182 4.87514 0.519289 6.66372C-0.173137 7.78368 -0.173137 9.1988 0.519289 10.3188C1.15851 11.3655 1.96482 12.3005 2.90621 13.0866L0.92362 15.0692C0.642328 15.3409 0.634528 15.7892 0.906195 16.0704C1.17786 16.3517 1.62614 16.3595 1.9074 16.0879C1.9133 16.0821 1.91911 16.0763 1.92482 16.0704L4.08584 13.9094C5.42074 14.7032 6.94692 15.1176 8.49995 15.1082C12.8836 15.1082 15.3817 12.1073 16.4806 10.3188C17.1731 9.1988 17.1731 7.78368 16.4806 6.66369ZM4.25156 8.49124C4.24755 6.1488 6.14317 4.24664 8.48561 4.24262C9.37191 4.24109 10.2364 4.51727 10.9577 5.03233L9.92958 6.06045C9.49797 5.80016 9.00399 5.66143 8.49998 5.65897C6.93577 5.65897 5.66771 6.92703 5.66771 8.49124C5.67017 8.99524 5.80891 9.48922 6.06919 9.92084L5.04107 10.949C4.52768 10.2323 4.2516 9.37282 4.25156 8.49124ZM8.49998 12.7397C7.6184 12.7396 6.75896 12.4636 6.04227 11.9502L7.07039 10.922C7.502 11.1823 7.99598 11.3211 8.49998 11.3235C10.0642 11.3235 11.3323 10.0555 11.3323 8.49124C11.3298 7.98724 11.1911 7.49326 10.9308 7.06165L11.9589 6.03353C13.3202 7.93981 12.8783 10.5887 10.9721 11.95C10.2508 12.465 9.38628 12.7412 8.49998 12.7397Z" fill="white" fill-opacity="0.1"/>
</g>
<defs>
<clipPath id="clip0_65_366">
<rect width="17" height="17" fill="white"/>
</clipPath>
</defs>
</svg>
